<?xml version="1.0" encoding="utf-8"?>
<!-- Uploaded to: SVG Repo, www.svgrepo.com, Generator: SVG Repo Mixer Tools -->
<svg width="80px" height="80px" viewBox="0 0 1024 1024" class="icon"  version="1.1" xmlns="http://www.w3.org/2000/svg"><path d="M524.305 589.494h-16.742c-26.223 0-47.488 21.261-47.488 47.488v132.655c0 26.229 21.266 47.487 47.488 47.487h16.742c26.23 0 47.491-21.26 47.491-47.487V636.982c0-26.227-21.261-47.488-47.491-47.488z" fill="#E5594F" /><path d="M460.075 483.395a55.861 55.942 0 1 0 111.722 0 55.861 55.942 0 1 0-111.722 0Z" fill="#6277BA" /><path d="M541.948 73.917l-3.333-1.934c-25.734-14.915-58.642-6.063-73.501 19.775L13.509 876.966C-1.35 902.8 7.468 935.834 33.204 950.749l3.329 1.93c25.734 14.915 58.642 6.067 73.505-19.771L561.643 147.7c14.854-25.838 6.037-58.872-19.695-73.783z" fill="#F39A2B" /><path d="M1014.925 875.031L562.275 89.833c-14.894-25.834-47.881-34.686-73.672-19.771l-3.337 1.93c-25.795 14.915-34.635 47.95-19.741 73.784L918.174 930.97c14.894 25.838 47.877 34.69 73.672 19.775l3.338-1.936c25.795-14.909 34.634-47.944 19.741-73.778z" fill="#C45FA0" /><path d="M972.031 847.991H53.843c-26.229 0-47.488 21.26-47.488 47.492v16.903c0 26.229 21.261 47.487 47.488 47.487h918.188c26.224 0 47.487-21.26 47.487-47.487v-16.903c0.002-26.232-21.263-47.492-47.487-47.492z" fill="#4A5699" /></svg>