<svg width="72" height="72" viewBox="0 0 60 60" fill="#333" xmlns="http://www.w3.org/2000/svg">
<path fill-rule="evenodd" clip-rule="evenodd" d="M56.25 46.875C56.25 48.945 54.5119 49.98 52.5 50.625C52.5 50.625 42.2944 53.4656 31.875 56.2069V9.375L52.5 3.75C54.57 3.75 56.25 5.43 56.25 7.5V46.875ZM28.125 56.2462C17.8838 53.4937 7.5 50.625 7.5 50.625C5.37 50.04 3.75 48.945 3.75 46.875V7.5C3.75 5.43 5.43 3.75 7.5 3.75L28.125 9.375V32.8106V56.2462ZM52.5 0C52.5 0 41.6456 2.98875 31.7813 5.625C30.5456 5.67188 29.3006 5.625 28.0631 5.625C18.6656 3.105 7.5 0 7.5 0C3.35813 0 0 3.35813 0 7.5V46.875C0 51.0169 3.53438 53.0869 7.5 54.375C7.5 54.375 17.6119 57.1875 28.0631 60H31.86C42.3975 57.1875 52.5 54.375 52.5 54.375C56.3494 53.3794 60 51.0169 60 46.875V7.5C60 3.35813 56.6419 0 52.5 0Z" fill="black"/>
</svg>
