<svg width="72" height="72" viewBox="0 0 60 60" fill="none" xmlns="http://www.w3.org/2000/svg">
<path d="M38.0545 31.2233L37.1369 29.7159C36.5429 30.0776 36.2167 30.7542 36.3039 31.4442C36.3907 32.1339 36.8746 32.7085 37.5399 32.9114L38.0545 31.2233ZM21.5612 31.2233L22.0759 32.9114C22.7411 32.7085 23.225 32.1339 23.3122 31.4442C23.399 30.7542 23.0729 30.0776 22.4788 29.7159L21.5612 31.2233ZM43.9257 17.6471C43.9257 22.7576 41.2112 27.2358 37.1369 29.7159L38.9722 32.7307C44.0545 29.6368 47.4551 24.0399 47.4551 17.6471H43.9257ZM29.808 3.52941C37.6049 3.52941 43.9257 9.85009 43.9257 17.6471H47.4551C47.4551 7.90087 39.5542 0 29.808 0V3.52941ZM15.6902 17.6471C15.6902 9.85009 22.0109 3.52941 29.808 3.52941V0C20.0617 0 12.1608 7.90087 12.1608 17.6471H15.6902ZM22.4788 29.7159C18.4047 27.2358 15.6902 22.7576 15.6902 17.6471H12.1608C12.1608 24.0399 15.5613 29.6368 20.6436 32.7307L22.4788 29.7159ZM21.0466 29.5352C9.90509 32.9326 1.51472 42.6367 0.0390011 54.4948L3.54138 54.9307C4.84232 44.4769 12.245 35.9089 22.0759 32.9114L21.0466 29.5352ZM0.0390011 54.4948C-0.351034 57.6289 2.24527 60 5.10201 60V56.4706C4.06031 56.4706 3.44997 55.6655 3.54138 54.9307L0.0390011 54.4948ZM5.10201 60H54.5139V56.4706H5.10201V60ZM54.5139 60C57.3706 60 59.9669 57.6289 59.5769 54.4948L56.0743 54.9307C56.1657 55.6655 55.5555 56.4706 54.5139 56.4706V60ZM59.5769 54.4948C58.1012 42.6367 49.7107 32.9326 38.5691 29.5352L37.5399 32.9114C47.3707 35.9089 54.7733 44.4769 56.0743 54.9307L59.5769 54.4948Z" fill="black"/>
</svg>
