<svg width="72" height="72" viewBox="0 0 59 64" fill="none" xmlns="http://www.w3.org/2000/svg">
<path d="M29.3943 19.8247V32M29.3943 44.1753H29.4248M2 19.6465V44.3533C2 45.3964 2 45.9179 2.15365 46.3829C2.28962 46.7945 2.51185 47.1722 2.80548 47.4906C3.13744 47.851 3.59328 48.1042 4.50497 48.6107L27.0293 61.1241C27.8925 61.6038 28.3241 61.8434 28.781 61.9375C29.1858 62.0209 29.6028 62.0209 30.0077 61.9375C30.4645 61.8434 30.8962 61.6038 31.7594 61.1241L54.2836 48.6107C55.1955 48.1042 55.6512 47.851 55.9833 47.4906C56.2767 47.1722 56.4992 46.7945 56.635 46.3829C56.7887 45.9179 56.7887 45.3964 56.7887 44.3533V19.6465C56.7887 18.6035 56.7887 18.082 56.635 17.617C56.4992 17.2055 56.2767 16.8278 55.9833 16.5092C55.6512 16.149 55.1955 15.8957 54.2836 15.3892L31.7594 2.87579C30.8962 2.39621 30.4645 2.15641 30.0077 2.06239C29.6028 1.9792 29.1858 1.9792 28.781 2.06239C28.3241 2.15641 27.8925 2.39621 27.0293 2.87579L4.50497 15.3892C3.59328 15.8957 3.13744 16.149 2.80548 16.5092C2.51185 16.8278 2.28962 17.2055 2.15365 17.617C2 18.082 2 18.6035 2 19.6465Z" stroke="black" stroke-width="4" stroke-linecap="round" stroke-linejoin="round"/>
</svg>
